<svg width="79" height="69" viewBox="0 0 79 69" fill="none" xmlns="http://www.w3.org/2000/svg">
<path d="M67.8081 17.9191H77.6654V28.4251H67.8081V48.5005C67.8081 55.3331 68.2359 55.3128 69.0914 56.1132C69.947 56.9137 71.6581 57.3139 74.2248 57.3139C75.0804 57.414 75.829 57.3139 76.6845 57.2139C77.4331 57.2139 78.4675 56.6471 79.0022 56.1132V67.1195C77.6654 67.6844 76.1498 68.3202 74.6526 68.3202C73.0484 68.4202 71.5512 68.4202 70.0539 68.4202C69.9537 68.4203 68.2604 68.4202 67.5474 68.3202C65.8106 68.0765 63.2278 67.1695 61.6236 66.269C60.7324 65.7688 58.4153 63.5175 58.1479 62.5169C57.3458 61.2662 56.8997 58.8148 56.8997 56.2133V28.4251H47.4534V17.9191H56.8997V0.40918H67.8081V17.9191Z" fill="#10239E"/>
<path fill-rule="evenodd" clip-rule="evenodd" d="M0.397461 28.4251H7.88363V67.2196H19.8616V28.4251H28.7381L28.738 17.9191H19.8616L19.8616 17.0186C19.8616 14.9174 20.2894 12.9221 21.145 12.0216C22.0005 11.121 23.4977 10.6208 25.6367 10.6208C27.5617 10.6208 29.3797 10.7208 31.1978 10.9209V0.409193L27.1339 0.40918L23.1234 0.409193C18.0434 0.409193 14.033 2.83299 11.6267 5.16189C8.5253 8.1636 7.88363 11.6156 7.88363 16.1181L7.88358 17.9191H0.397408L0.397461 28.4251ZM44.2451 32.9277H32.5881V67.2196H44.2451V32.9277Z" fill="#10239E"/>
<path d="M44.2451 23.2723C44.2451 26.3201 41.7743 28.7909 38.7264 28.7909H38.5345C35.4866 28.7909 33.0158 26.3201 33.0158 23.2722V23.2722C33.0158 20.2244 35.4866 17.7536 38.5345 17.7536H38.7264C41.7743 17.7536 44.2451 20.2244 44.2451 23.2723V23.2723Z" fill="#40A9FF"/>
</svg>
